::::::::::::::Enjoy:Another:Release:From:T0XiC::::::::::::::

File::The.Experiment.2010.DVDSCR.Xvid-T0XiC

Source:: Transformerz at Peeraccess.info (Thanks Bro!)

Language::English

IMDB::http://www.imdb.com/title/tt0997152/

Plot::26 men are chosen to participate in the roles of guards and prisoners in a psychological study that ultimately spirals out of control.


Details

Format : AVI
Format/Info : Audio Video Interleave
Format profile : OpenDML
File size : 1.10 GiB
Duration : 12mn 49s
Overall bit rate : 12.3 Mbps
Writing application : Lavf52.54.0

Video
ID : 0
Format : MPEG-4 Visual
Format profile : Simple@L1
Format settings, BVOP : No
Format settings, QPel : No
Format settings, GMC : No warppoints
Format settings, Matrix : Default (H.263)
Codec ID : FMP4
Duration : 12mn 49s
Bit rate : 1 489 Kbps
Width : 640 pixels
Height : 480 pixels
Display aspect ratio : 4:3
Frame rate : 29.970 fps
Color space : YUV
Chroma subsampling : 4:2:0
Bit depth : 8 bits
Scan type : Progressive
Bits/(Pixel*Frame) : 0.162
Stream size : 137 MiB (12%)
Writing library : Lavc52.55.0

Audio
ID : 1
Format : MPEG Audio
Format version : Version 1
Format profile : Layer 3
Mode : Joint stereo
Mode extension : MS Stereo
Codec ID : 55
Codec ID/Hint : MP3
Duration : 8mn 16s
Bit rate mode : Constant
Bit rate : 128 Kbps
Channel(s) : 2 channels
Sampling rate : 44.1 KHz
Stream size : 7.58 MiB (1%)
Alignment : Aligned on interleaves
Interleave, duration : 40 ms (1.21 video frame)

Notes: Goes Black and White every now and again with the property of etc. Sorry the AR is messed up, will do a V2 and release it in a day or 2 as i'm very busy at the moment


and special thanks to Alice
::::::::::::::Hats Off To::::::::::::::
::IMAGiNE,FLAWL3SS,Lynks,PeerAccess.info,ELEKTRI4KA::
"And to all of you who support us, Thank you"

::Why Complain? Whats Free Is Free::


::We are looking for unreleased DVD's, Screeners, New Music Releases, R5's, Audio, Cams, Silvers,
And Any Other Good Sources You Have To Offer contact us::